<svg xmlns="http://www.w3.org/2000/svg" width="200" height="40" viewBox="0 0 540 60">
  <title>white-logo</title>
  <path d="M60,60H17.14V51.43H8.57V42.86H0V17.14H8.57V8.57h8.57V0H60V8.57H25.71v8.57H17.14V42.86h8.57v8.57H42.86V34.29H34.29V25.71H60ZM111.43,8.57H94.29V0h17.14ZM128.57,60H77.14V51.43H94.29V25.71H85.71V17.14h25.72V51.43h17.14ZM180,60H162.86V25.71H145.71V17.14h17.15V8.57h8.57V0h25.71V8.57H180v8.57h17.14v8.57H180Zm77.14,0H214.29V51.43h-8.58V42.86h17.15v8.57h25.71V34.29H214.29V25.71h-8.58V8.57h8.58V0h42.85V8.57h8.57v8.57H248.57V8.57H222.86V25.71h34.28v8.58h8.57V51.43h-8.57Zm60,0H300V25.71H282.86V17.14H300V0h17.14V17.14h17.15v8.57H317.14Zm85.72,0H351.43V51.43h-8.57V42.86h8.57V34.29h34.28V25.71H351.43V17.14h42.86v8.57h8.57ZM360,42.86v8.57h25.71V42.86ZM471.43,60H420V51.43h-8.57V25.71H420V17.14h51.43v8.57H428.57V51.43h42.86Zm25.71,0H480V0h17.14V34.29h17.15V25.71h8.57V17.14H540v8.57h-8.57v8.58h-8.57v8.57h8.57v8.57H540V60H522.86V51.43h-8.57V42.86H497.14Z" fill="#fff"/>
</svg>
